<mxfile host="app.diagrams.net" modified="2023-02-07T03:08:47.107Z" agent="5.0 (Windows NT 10.0; Win64; x64) AppleWebKit/537.36 (KHTML, like Gecko) Chrome/109.0.0.0 Safari/537.36" etag="QEbtuNNn7Uu8ZuBZu8Db" version="20.8.17" type="github">
  <diagram id="C5RBs43oDa-KdzZeNtuy" name="Page-1">
    <mxGraphModel dx="1434" dy="788" grid="1" gridSize="10" guides="1" tooltips="1" connect="1" arrows="1" fold="1" page="1" pageScale="1" pageWidth="827" pageHeight="1169" math="0" shadow="0">
      <root>
        <mxCell id="WIyWlLk6GJQsqaUBKTNV-0" />
        <mxCell id="WIyWlLk6GJQsqaUBKTNV-1" parent="WIyWlLk6GJQsqaUBKTNV-0" />
        <mxCell id="8u9az_-6E9huGCgLwTI3-2" style="edgeStyle=orthogonalEdgeStyle;rounded=0;orthogonalLoop=1;jettySize=auto;html=1;exitX=0.5;exitY=0;exitDx=0;exitDy=0;entryX=0;entryY=0.5;entryDx=0;entryDy=0;" parent="WIyWlLk6GJQsqaUBKTNV-1" target="8u9az_-6E9huGCgLwTI3-1" edge="1">
          <mxGeometry relative="1" as="geometry">
            <mxPoint x="95" y="230" as="sourcePoint" />
          </mxGeometry>
        </mxCell>
        <mxCell id="8u9az_-6E9huGCgLwTI3-4" value="" style="edgeStyle=orthogonalEdgeStyle;rounded=0;orthogonalLoop=1;jettySize=auto;html=1;" parent="WIyWlLk6GJQsqaUBKTNV-1" source="8u9az_-6E9huGCgLwTI3-1" target="8u9az_-6E9huGCgLwTI3-3" edge="1">
          <mxGeometry relative="1" as="geometry" />
        </mxCell>
        <mxCell id="8u9az_-6E9huGCgLwTI3-1" value="get username" style="rounded=1;whiteSpace=wrap;html=1;fontSize=12;glass=0;strokeWidth=1;shadow=0;" parent="WIyWlLk6GJQsqaUBKTNV-1" vertex="1">
          <mxGeometry x="40" y="230" width="120" height="40" as="geometry" />
        </mxCell>
        <mxCell id="8u9az_-6E9huGCgLwTI3-20" value="" style="edgeStyle=orthogonalEdgeStyle;rounded=0;orthogonalLoop=1;jettySize=auto;html=1;" parent="WIyWlLk6GJQsqaUBKTNV-1" source="8u9az_-6E9huGCgLwTI3-3" target="8u9az_-6E9huGCgLwTI3-10" edge="1">
          <mxGeometry relative="1" as="geometry" />
        </mxCell>
        <mxCell id="8u9az_-6E9huGCgLwTI3-3" value="get password" style="rounded=1;whiteSpace=wrap;html=1;fontSize=12;glass=0;strokeWidth=1;shadow=0;" parent="WIyWlLk6GJQsqaUBKTNV-1" vertex="1">
          <mxGeometry x="40" y="290" width="120" height="40" as="geometry" />
        </mxCell>
        <mxCell id="8u9az_-6E9huGCgLwTI3-6" value="stsuu.getContextAttributes().getAttributeValuesByNameAndType(name, type)" style="ellipse;shape=cloud;whiteSpace=wrap;html=1;" parent="WIyWlLk6GJQsqaUBKTNV-1" vertex="1">
          <mxGeometry x="190" y="250" width="620" height="80" as="geometry" />
        </mxCell>
        <mxCell id="8u9az_-6E9huGCgLwTI3-13" value="is" style="edgeStyle=orthogonalEdgeStyle;rounded=0;orthogonalLoop=1;jettySize=auto;html=1;entryX=0;entryY=0.5;entryDx=0;entryDy=0;" parent="WIyWlLk6GJQsqaUBKTNV-1" source="8u9az_-6E9huGCgLwTI3-10" target="8u9az_-6E9huGCgLwTI3-12" edge="1">
          <mxGeometry relative="1" as="geometry" />
        </mxCell>
        <mxCell id="8u9az_-6E9huGCgLwTI3-10" value="request_type" style="strokeWidth=2;html=1;shape=mxgraph.flowchart.decision;whiteSpace=wrap;" parent="WIyWlLk6GJQsqaUBKTNV-1" vertex="1">
          <mxGeometry x="50" y="360" width="100" height="100" as="geometry" />
        </mxCell>
        <mxCell id="8u9az_-6E9huGCgLwTI3-15" value="And" style="edgeStyle=orthogonalEdgeStyle;rounded=0;orthogonalLoop=1;jettySize=auto;html=1;" parent="WIyWlLk6GJQsqaUBKTNV-1" source="8u9az_-6E9huGCgLwTI3-12" target="8u9az_-6E9huGCgLwTI3-14" edge="1">
          <mxGeometry relative="1" as="geometry" />
        </mxCell>
        <mxCell id="8u9az_-6E9huGCgLwTI3-12" value="AccessToken" style="rounded=1;whiteSpace=wrap;html=1;fontSize=12;glass=0;strokeWidth=1;shadow=0;" parent="WIyWlLk6GJQsqaUBKTNV-1" vertex="1">
          <mxGeometry x="200" y="390" width="120" height="40" as="geometry" />
        </mxCell>
        <mxCell id="8u9az_-6E9huGCgLwTI3-17" value="IS" style="edgeStyle=orthogonalEdgeStyle;rounded=0;orthogonalLoop=1;jettySize=auto;html=1;" parent="WIyWlLk6GJQsqaUBKTNV-1" source="8u9az_-6E9huGCgLwTI3-14" target="8u9az_-6E9huGCgLwTI3-16" edge="1">
          <mxGeometry relative="1" as="geometry">
            <Array as="points">
              <mxPoint x="590" y="410" />
              <mxPoint x="590" y="410" />
            </Array>
          </mxGeometry>
        </mxCell>
        <mxCell id="8u9az_-6E9huGCgLwTI3-14" value="grant_type" style="strokeWidth=2;html=1;shape=mxgraph.flowchart.decision;whiteSpace=wrap;" parent="WIyWlLk6GJQsqaUBKTNV-1" vertex="1">
          <mxGeometry x="400" y="360" width="100" height="100" as="geometry" />
        </mxCell>
        <mxCell id="FqvtAqR_Rkzib5x8kWpQ-4" value="" style="edgeStyle=orthogonalEdgeStyle;rounded=0;orthogonalLoop=1;jettySize=auto;html=1;" edge="1" parent="WIyWlLk6GJQsqaUBKTNV-1" source="8u9az_-6E9huGCgLwTI3-16" target="FqvtAqR_Rkzib5x8kWpQ-3">
          <mxGeometry relative="1" as="geometry" />
        </mxCell>
        <mxCell id="8u9az_-6E9huGCgLwTI3-16" value="Password" style="rounded=1;whiteSpace=wrap;html=1;fontSize=12;glass=0;strokeWidth=1;shadow=0;" parent="WIyWlLk6GJQsqaUBKTNV-1" vertex="1">
          <mxGeometry x="660" y="390" width="120" height="40" as="geometry" />
        </mxCell>
        <mxCell id="8u9az_-6E9huGCgLwTI3-33" value="Authentication Successful" style="rounded=1;whiteSpace=wrap;html=1;fontSize=12;glass=0;strokeWidth=1;shadow=0;" parent="WIyWlLk6GJQsqaUBKTNV-1" vertex="1">
          <mxGeometry x="20" y="537.5" width="130" height="40" as="geometry" />
        </mxCell>
        <mxCell id="FqvtAqR_Rkzib5x8kWpQ-2" value="" style="edgeStyle=orthogonalEdgeStyle;rounded=0;orthogonalLoop=1;jettySize=auto;html=1;" edge="1" parent="WIyWlLk6GJQsqaUBKTNV-1" source="FqvtAqR_Rkzib5x8kWpQ-0" target="8u9az_-6E9huGCgLwTI3-1">
          <mxGeometry relative="1" as="geometry">
            <Array as="points">
              <mxPoint x="95" y="210" />
              <mxPoint x="95" y="210" />
            </Array>
          </mxGeometry>
        </mxCell>
        <mxCell id="FqvtAqR_Rkzib5x8kWpQ-0" value="ropc_http_demo" style="rounded=1;whiteSpace=wrap;html=1;absoluteArcSize=1;arcSize=14;strokeWidth=2;" vertex="1" parent="WIyWlLk6GJQsqaUBKTNV-1">
          <mxGeometry x="45" y="60" width="100" height="100" as="geometry" />
        </mxCell>
        <mxCell id="FqvtAqR_Rkzib5x8kWpQ-8" value="httpPost(param)" style="edgeStyle=orthogonalEdgeStyle;rounded=0;orthogonalLoop=1;jettySize=auto;html=1;entryX=1;entryY=0.5;entryDx=0;entryDy=0;" edge="1" parent="WIyWlLk6GJQsqaUBKTNV-1" source="FqvtAqR_Rkzib5x8kWpQ-3" target="FqvtAqR_Rkzib5x8kWpQ-11">
          <mxGeometry relative="1" as="geometry">
            <mxPoint x="570" y="510" as="targetPoint" />
          </mxGeometry>
        </mxCell>
        <mxCell id="FqvtAqR_Rkzib5x8kWpQ-3" value="Create &lt;br&gt;HTTP &lt;br&gt;Client" style="rounded=1;whiteSpace=wrap;html=1;absoluteArcSize=1;arcSize=14;strokeWidth=2;" vertex="1" parent="WIyWlLk6GJQsqaUBKTNV-1">
          <mxGeometry x="690" y="530" width="60" height="55" as="geometry" />
        </mxCell>
        <mxCell id="FqvtAqR_Rkzib5x8kWpQ-13" value="hr.getCode()" style="edgeStyle=orthogonalEdgeStyle;rounded=0;orthogonalLoop=1;jettySize=auto;html=1;" edge="1" parent="WIyWlLk6GJQsqaUBKTNV-1" source="FqvtAqR_Rkzib5x8kWpQ-11" target="FqvtAqR_Rkzib5x8kWpQ-12">
          <mxGeometry relative="1" as="geometry" />
        </mxCell>
        <mxCell id="FqvtAqR_Rkzib5x8kWpQ-11" value="HTTP &lt;br&gt;Client" style="rounded=1;whiteSpace=wrap;html=1;absoluteArcSize=1;arcSize=14;strokeWidth=2;" vertex="1" parent="WIyWlLk6GJQsqaUBKTNV-1">
          <mxGeometry x="470" y="530" width="60" height="55" as="geometry" />
        </mxCell>
        <mxCell id="FqvtAqR_Rkzib5x8kWpQ-14" value="200" style="edgeStyle=orthogonalEdgeStyle;rounded=0;orthogonalLoop=1;jettySize=auto;html=1;" edge="1" parent="WIyWlLk6GJQsqaUBKTNV-1" source="FqvtAqR_Rkzib5x8kWpQ-12" target="8u9az_-6E9huGCgLwTI3-33">
          <mxGeometry relative="1" as="geometry" />
        </mxCell>
        <mxCell id="FqvtAqR_Rkzib5x8kWpQ-12" value="Status Code" style="strokeWidth=2;html=1;shape=mxgraph.flowchart.decision;whiteSpace=wrap;" vertex="1" parent="WIyWlLk6GJQsqaUBKTNV-1">
          <mxGeometry x="220" y="507.5" width="100" height="100" as="geometry" />
        </mxCell>
      </root>
    </mxGraphModel>
  </diagram>
</mxfile>
